<svg width="100" height="101" viewBox="0 0 100 101" fill="none" xmlns="http://www.w3.org/2000/svg">
<path d="M85.7519 27.7543H14.6111V21.9469C14.6158 20.3452 15.9131 19.0479 17.5148 19.0432H82.8481C84.4499 19.0479 85.7472 20.3452 85.7518 21.9469L85.7519 27.7543Z" fill="white" stroke="#020064" stroke-linecap="round" stroke-linejoin="round"/>
<path d="M17.5149 23.3989C17.5149 24.5165 18.7248 25.215 19.6927 24.6562C20.1419 24.3969 20.4186 23.9176 20.4186 23.3989C20.4186 22.2812 19.2087 21.5827 18.2408 22.1415C17.7916 22.4009 17.5149 22.8802 17.5149 23.3989Z" fill="white" stroke="#020064" stroke-linecap="round" stroke-linejoin="round"/>
<path d="M23.3223 23.3989C23.3223 24.5165 24.5322 25.215 25.5001 24.6562C25.9493 24.3969 26.226 23.9176 26.226 23.3989C26.226 22.2812 25.0161 21.5827 24.0482 22.1415C23.599 22.4009 23.3223 22.8802 23.3223 23.3989Z" fill="white" stroke="#020064" stroke-linecap="round" stroke-linejoin="round"/>
<path d="M29.1296 23.3989C29.1296 24.5165 30.3395 25.215 31.3074 24.6562C31.7566 24.3969 32.0333 23.9176 32.0333 23.3989C32.0333 22.2812 30.8235 21.5827 29.8556 22.1415C29.4064 22.4009 29.1296 22.8802 29.1296 23.3989Z" fill="white" stroke="#020064" stroke-linecap="round" stroke-linejoin="round"/>
<path d="M85.7519 74.2137C85.7472 75.8154 84.4499 77.1127 82.8482 77.1174H17.5148C15.9131 77.1127 14.6158 75.8154 14.6111 74.2137V27.7544H85.7519V74.2137Z" fill="white" stroke="#020064" stroke-linecap="round" stroke-linejoin="round"/>
<path d="M35.2759 86.1913C35.2662 87.5883 48.3672 88.4627 58.8576 87.7651C63.734 87.4409 66.7372 86.8407 66.7327 86.1913C66.7423 84.7942 53.6414 83.9199 43.151 84.6174C38.2746 84.9417 35.2714 85.5419 35.2759 86.1913Z" fill="white"/>
<path d="M52.8336 64.4208C51.7918 65.3842 50.1842 65.3842 49.1423 64.4208L39.7053 55.6771C37.6175 53.6638 36.4542 50.8775 36.4906 47.9774C36.4439 45.4081 37.6093 42.9667 39.6363 41.3872C42.3796 39.3004 46.2786 39.7378 48.4914 42.3805L51.0152 45.2467L53.5438 42.3854C55.7618 39.7463 59.6624 39.3169 62.4013 41.4102C64.4245 42.994 65.584 45.4377 65.5313 48.0065C65.5615 50.9066 64.392 53.6904 62.2997 55.6989L52.8336 64.4208Z" fill="white" stroke="#020064" stroke-linecap="round" stroke-linejoin="round"/>
<path d="M32.2875 43.8831L24.6254 37.7853V41.7053H12.4939C8.88728 41.7013 5.96458 38.7786 5.96058 35.172V29.0742C5.96058 28.5931 5.57058 28.2031 5.08948 28.2031H2.47618C1.99508 28.2031 1.60498 28.5931 1.60498 29.0742V35.172C1.61168 41.183 6.48288 46.0542 12.4939 46.0609H24.6254V49.9809L32.2875 43.8831Z" fill="white" stroke="#020064" stroke-linecap="round" stroke-linejoin="round"/>
<path d="M32.2875 62.1281L24.6254 68.2259V64.3059H12.4939C8.88728 64.3099 5.96458 67.2326 5.96058 70.8392V76.937C5.96058 77.4181 5.57058 77.8081 5.08948 77.8081H2.47618C1.99498 77.8081 1.60498 77.4181 1.60498 76.937V70.8392C1.61168 64.8282 6.48288 59.957 12.4939 59.9503H24.6254V56.0303L32.2875 62.1281Z" fill="white" stroke="#020064" stroke-linecap="round" stroke-linejoin="round"/>
<path d="M67.7126 43.8831L75.3747 37.7853V41.7053H87.5062C91.1128 41.7013 94.0355 38.7786 94.0395 35.172V29.0742C94.0395 28.5931 94.4295 28.2031 94.9106 28.2031H97.5239C98.005 28.2031 98.3951 28.5931 98.3951 29.0742V35.172C98.3884 41.183 93.5172 46.0542 87.5062 46.0609H75.3747V49.9809L67.7126 43.8831Z" fill="white" stroke="#020064" stroke-linecap="round" stroke-linejoin="round"/>
<path d="M67.7126 62.1281L75.3747 68.2259V64.3059H87.5062C91.1128 64.3099 94.0355 67.2326 94.0395 70.8392V76.937C94.0395 77.4181 94.4295 77.8081 94.9106 77.8081H97.5239C98.005 77.8081 98.3951 77.4181 98.3951 76.937V70.8392C98.3884 64.8282 93.5172 59.957 87.5062 59.9503H75.3747V56.0303L67.7126 62.1281Z" fill="white" stroke="#020064" stroke-linecap="round" stroke-linejoin="round"/>
</svg>
