<svg width="100" height="101" viewBox="0 0 100 101" fill="none" xmlns="http://www.w3.org/2000/svg">
<path d="M17.9526 79.7027L25.2581 11.3093L80.016 17.1584L72.7105 85.5517L17.9526 79.7027Z" fill="white" stroke="#020064" stroke-linecap="round" stroke-linejoin="round"/>
<path d="M41.7496 45.7825L44.9063 48.6063L49.136 48.8346L50.4578 52.8577L54.005 55.1708L53.1387 59.3164L55.0553 63.092L52.2326 66.2486L52.0031 70.4784L47.9801 71.8002L45.6682 75.3486L41.5225 74.481L37.7458 76.3976L34.5891 73.575L30.3606 73.3455L29.0376 69.3224L25.4904 67.0105L26.3568 62.8649L24.4402 59.0881L27.264 55.9315L27.4923 51.7029L31.5154 50.3799L33.8273 46.8327L37.9729 47.6991L41.7496 45.7825Z" fill="white" stroke="#020064" stroke-linecap="round" stroke-linejoin="round"/>
<path d="M30.6118 29.3008L31.5465 20.5498L71.9163 24.862L70.9815 33.6129L30.6118 29.3008Z" fill="white" stroke="#020064" stroke-linecap="round" stroke-linejoin="round"/>
<path d="M45.9468 37.6113L70.2798 40.2105" stroke="#020064" stroke-linecap="round" stroke-linejoin="round"/>
<path d="M57.3311 45.5254L69.5721 46.8339" stroke="#020064" stroke-linecap="round" stroke-linejoin="round"/>
<path d="M58.3525 52.7241L68.8235 53.8428" stroke="#020064" stroke-linecap="round" stroke-linejoin="round"/>
<path d="M36.2773 69.4857L33.4343 69.3331L32.5463 66.627L30.1586 65.0709L30.7414 62.2832L29.4521 59.7429L31.3506 57.6208L31.5056 54.7766L34.2093 53.8874L35.7666 51.501L38.5532 52.0837L41.0946 50.7944L43.2167 52.693L46.0623 52.848L46.9514 55.5528L49.3354 57.1078L48.7526 59.8967L50.042 62.437L48.1446 64.5603L47.9908 67.4045L45.2847 68.2937L43.7298 70.6801L40.9408 70.0961L38.4006 71.3855L36.2773 69.4857Z" stroke="#020064" stroke-linecap="round" stroke-linejoin="round"/>
<path d="M72.8875 83.8931L70.5924 69.75C70.2048 67.3519 67.3666 66.2726 65.4835 67.8073C64.6096 68.5196 64.1821 69.644 64.362 70.7569L65.3353 76.7795C66.1464 81.7963 60.5035 81.5043 61.9311 90.3315L63.3154 98.8991L80.4818 96.1245C79.898 93.7252 79.7947 91.234 80.1778 88.7946C80.9276 84.6502 81.7724 81.2243 80.924 75.9684C80.0636 70.6416 78.4979 68.3633 75.1141 63.0437L72.8875 83.8931Z" fill="white"/>
<path d="M80.4818 96.1245C79.898 93.7252 79.7947 91.234 80.1778 88.7946C80.9276 84.6502 81.7724 81.2243 80.924 75.9684C80.0636 70.6416 78.4979 68.3633 75.1141 63.0437L72.8875 83.8931L70.5924 69.75C70.2048 67.3519 67.3666 66.2726 65.4835 67.8073C64.6096 68.5196 64.1821 69.644 64.362 70.7569L65.3353 76.7795C66.1464 81.7963 60.5035 81.5043 61.9311 90.3315L63.3154 98.8991" stroke="#020064" stroke-linecap="round" stroke-linejoin="round"/>
</svg>
