<svg width="180" height="35" viewBox="0 0 180 35" fill="none" xmlns="http://www.w3.org/2000/svg">
<g clip-path="url(#clip0_2030_536)">
<mask id="mask0_2030_536" style="mask-type:luminance" maskUnits="userSpaceOnUse" x="0" y="2" width="30" height="35">
<path d="M29.5167 2.33325H0V36.1666H29.5167V2.33325Z" fill="white"/>
</mask>
<g mask="url(#mask0_2030_536)">
<path d="M14.7573 7.53488L29.1886 2.66138L24.9778 19.25L29.1886 35.7919L14.7573 30.9651L0.285156 35.7919L4.53687 19.25L0.285156 2.66138L14.7573 7.53488Z" fill="black"/>
</g>
<path d="M44.376 29V12.648H48.6V29H44.376ZM44.376 6.6H48.6V10.92H44.376V6.6ZM52.3048 21.864V16.008H50.0968V12.648H52.3048V8.2H56.5608V12.648H59.1848V16.008H56.5608V22.888C56.5608 24.1893 56.7848 25.1067 57.2328 25.64H59.1848V29H54.6408C53.5101 27.9547 52.8274 26.824 52.5928 25.608C52.4008 24.584 52.3048 23.336 52.3048 21.864ZM60.425 21.608V17.96H67.017V21.608H60.425ZM70.476 12.648H77.548V16.008H72.556L75.596 20.52C76.9613 22.4613 77.7187 23.7947 77.868 24.52C77.9533 24.8613 77.996 25.2133 77.996 25.576C77.996 27.0907 77.4307 28.232 76.3 29H68.14V25.64H73.996L70.572 20.616C70.4227 20.3813 70.188 20.0507 69.868 19.624C69.5693 19.1973 69.3347 18.856 69.164 18.6C68.9933 18.3227 68.876 18.12 68.812 17.992C68.748 17.864 68.6627 17.704 68.556 17.512C68.4493 17.2987 68.3747 17.1173 68.332 16.968C68.2467 16.5627 68.204 16.232 68.204 15.976C68.204 14.4187 68.9613 13.3093 70.476 12.648ZM79.655 20.008V12.648H83.911V20.04C83.911 21.896 84.2843 23.4427 85.031 24.68H86.919C87.623 23.464 87.975 21.9173 87.975 20.04V12.648H92.231V19.784C92.231 21.384 92.0177 22.792 91.591 24.008C91.1857 25.224 90.5137 26.6 89.575 28.136L87.431 31.624C87.047 32.2853 86.6417 32.776 86.215 33.096C85.7883 33.416 85.2337 33.6507 84.551 33.8H79.495V30.44H82.951C83.399 30.312 83.7723 30.088 84.071 29.768C84.3697 29.448 84.679 28.9893 84.999 28.392L85.191 28.04H82.983C81.959 27.208 81.1483 26.088 80.551 24.68C79.9537 23.2507 79.655 21.6933 79.655 20.008ZM96.0073 12.648H103.079V16.008H98.0873L101.127 20.52C102.493 22.4613 103.25 23.7947 103.399 24.52C103.485 24.8613 103.527 25.2133 103.527 25.576C103.527 27.0907 102.962 28.232 101.831 29H93.6713V25.64H99.5273L96.1033 20.616C95.9539 20.3813 95.7193 20.0507 95.3993 19.624C95.1006 19.1973 94.8659 18.856 94.6953 18.6C94.5246 18.3227 94.4073 18.12 94.3433 17.992C94.2793 17.864 94.1939 17.704 94.0872 17.512C93.9806 17.2987 93.9059 17.1173 93.8633 16.968C93.7779 16.5627 93.7353 16.232 93.7353 15.976C93.7353 14.4187 94.4926 13.3093 96.0073 12.648ZM112.699 12.648H114.971L115.771 13.768C116.219 13.3627 116.645 13.0747 117.051 12.904C117.477 12.7333 118.107 12.648 118.939 12.648H122.491C123.429 13.8427 124.069 15.0373 124.411 16.232C124.752 17.4267 124.923 18.92 124.923 20.712V29H120.667V20.392C120.667 18.4293 120.368 16.968 119.771 16.008H116.699C117.168 16.9253 117.403 18.1733 117.403 19.752V29H113.147V20.392C113.147 18.3653 112.869 16.904 112.315 16.008H109.851V29H105.595V12.648H108.923L109.499 13.8C109.968 13.3733 110.405 13.0747 110.811 12.904C111.237 12.7333 111.867 12.648 112.699 12.648ZM134.924 16.008H132.524C132.204 16.392 131.938 16.9253 131.724 17.608C131.532 18.2907 131.436 18.952 131.436 19.592H136.012C136.055 18.952 135.97 18.2907 135.756 17.608C135.543 16.904 135.266 16.3707 134.924 16.008ZM139.276 25.64V29H131.148C129.655 27.9973 128.599 26.76 127.98 25.288C127.383 23.7947 127.084 22.2907 127.084 20.776C127.084 17.2773 128.407 14.568 131.052 12.648H136.236C137.666 13.6933 138.636 14.8027 139.148 15.976C139.66 17.1493 139.916 18.3333 139.916 19.528C139.916 20.7227 139.82 21.7467 139.628 22.6H131.66C131.724 23.0907 131.906 23.656 132.204 24.296C132.524 24.9147 132.866 25.3627 133.228 25.64H139.276ZM149.168 12.648H151.44L152.24 13.768C152.688 13.3627 153.114 13.0747 153.52 12.904C153.946 12.7333 154.576 12.648 155.408 12.648H158.96C159.898 13.8427 160.538 15.0373 160.88 16.232C161.221 17.4267 161.392 18.92 161.392 20.712V29H157.135V20.392C157.135 18.4293 156.837 16.968 156.24 16.008H153.168C153.637 16.9253 153.872 18.1733 153.872 19.752V29H149.616V20.392C149.616 18.3653 149.338 16.904 148.784 16.008H146.32V29H142.064V12.648H145.391L145.968 13.8C146.437 13.3733 146.874 13.0747 147.28 12.904C147.706 12.7333 148.336 12.648 149.168 12.648ZM165.601 12.648H172.673V16.008H167.681L170.721 20.52C172.086 22.4613 172.844 23.7947 172.993 24.52C173.078 24.8613 173.121 25.2133 173.121 25.576C173.121 27.0907 172.556 28.232 171.425 29H163.265V25.64H169.121L165.697 20.616C165.548 20.3813 165.313 20.0507 164.993 19.624C164.694 19.1973 164.46 18.856 164.289 18.6C164.118 18.3227 164.001 18.12 163.937 17.992C163.873 17.864 163.788 17.704 163.681 17.512C163.574 17.2987 163.5 17.1173 163.457 16.968C163.372 16.5627 163.329 16.232 163.329 15.976C163.329 14.4187 164.086 13.3093 165.601 12.648Z" fill="black"/>
</g>
<defs>
<clipPath id="clip0_2030_536">
<rect width="180" height="35" fill="white"/>
</clipPath>
</defs>
</svg>
