<svg width="800" height="800" viewBox="0 0 800 800" fill="none" xmlns="http://www.w3.org/2000/svg">
<path fill-rule="evenodd" clip-rule="evenodd" d="M770.39 149.816C780.987 98.1573 730.247 55.2276 681.057 74.2333L78.0834 307.2C23.1506 328.424 20.7029 405.24 74.1727 429.917L205.483 490.523L267.95 709.153C271.194 720.51 280.206 729.303 291.639 732.267C303.072 735.227 315.219 731.92 323.571 723.567L419.793 627.343L554.583 728.437C593.71 757.78 650.063 736.407 659.89 688.497L770.39 149.816ZM102.11 369.387L705.083 136.42L594.583 675.103L436.667 556.663C423.397 546.71 404.827 548.03 393.097 559.76L351.883 600.973L364.267 532.87L606.903 290.234C618.713 278.426 619.96 259.702 609.823 246.431C599.687 233.16 581.297 229.437 566.797 237.723L231.708 429.2L102.11 369.387ZM272.565 482.637L292.778 553.383L300.538 510.7C301.751 504.03 304.969 497.887 309.764 493.093L383.76 419.1L272.565 482.637Z" fill="#0F0F0F"/>
</svg>
