<svg width="100" height="101" viewBox="0 0 100 101" fill="none" xmlns="http://www.w3.org/2000/svg">
<path d="M78.7544 36.8058C80.6105 36.8058 82.1152 35.3011 82.1152 33.445C82.1152 31.5889 80.6105 30.0842 78.7544 30.0842C76.8984 30.0842 75.3936 31.5889 75.3936 33.445C75.3936 35.3011 76.8984 36.8058 78.7544 36.8058Z" fill="white" stroke="#020064" stroke-linecap="round" stroke-linejoin="round"/>
<path d="M67.06 33.1873L62.7407 34.3806L64.5305 40.8594L68.8498 39.6662L67.06 33.1873Z" fill="white"/>
<path d="M67.06 33.1873L62.7407 34.3806L64.5305 40.8594L68.8498 39.6662L67.06 33.1873Z" stroke="#020064" stroke-linecap="round" stroke-linejoin="round"/>
<path d="M62.7406 34.3821C61.8814 34.6195 61.1518 35.1885 60.7121 35.9639C60.2726 36.7393 60.1589 37.6577 60.3964 38.5169C60.6338 39.376 61.2029 40.1057 61.9783 40.5453C62.7537 40.985 63.672 41.0985 64.5312 40.8611L62.7406 34.3821Z" fill="white" stroke="#020064" stroke-linecap="round" stroke-linejoin="round"/>
<path d="M68.85 39.6682L65.6106 40.5631L67.4004 47.042L70.6398 46.1471L68.85 39.6682Z" fill="white" stroke="#020064" stroke-linecap="round" stroke-linejoin="round"/>
<path d="M67.0605 33.1882L75.5858 26.1838C75.5858 26.1838 78.0437 26.667 79.8343 33.147C81.6249 39.627 79.7629 41.2998 79.7629 41.2998L68.8501 39.6672L67.0605 33.1882Z" fill="white" stroke="#020064" stroke-linecap="round" stroke-linejoin="round"/>
<path d="M40.4452 75.9847H57.1947V54.9897H65.1996C66.3392 55.0063 67.463 54.723 68.4584 54.1681C69.4539 53.6132 70.2859 52.8064 70.8711 51.8283C71.4563 50.8504 71.774 49.7358 71.7924 48.5963C71.8108 47.4568 71.5293 46.3325 70.976 45.3362L66.7053 46.8067C67.5448 49.1871 66.0008 50.2178 64.0441 50.2178H48.8205C36.8761 50.2178 30.7151 57.5543 27.7268 69.5339L32.2088 71.3376C35.1962 62.0947 37.483 58.6867 40.4452 57.6137V75.9847Z" fill="white"/>
<path d="M40.4451 75.9846L36.6384 97.3028H42.8396L47.3559 81.0978C47.3778 80.724 47.5417 80.3729 47.814 80.116C48.0864 79.8592 48.4465 79.7162 48.8208 79.7162C49.1951 79.7162 49.5554 79.8592 49.8278 80.116C50.1 80.3729 50.2639 80.724 50.2858 81.0978L54.8011 97.3028H61.0033L57.1946 75.9846H40.4451Z" fill="white"/>
<path d="M40.4451 75.9846L36.6384 97.3028H42.8396L47.3559 81.0978C47.3778 80.724 47.5417 80.3729 47.814 80.116C48.0864 79.8592 48.4465 79.7162 48.8208 79.7162C49.1951 79.7162 49.5554 79.8592 49.8278 80.116C50.1 80.3729 50.2639 80.724 50.2858 81.0978L54.8011 97.3028H61.0033L57.1946 75.9846H40.4451Z" stroke="#020064" stroke-linecap="round" stroke-linejoin="round"/>
<path d="M48.8626 99.5C55.6689 99.5 61.1865 98.7474 61.1865 97.8191C61.1865 96.8908 55.6689 96.1382 48.8626 96.1382C42.0563 96.1382 36.5388 96.8908 36.5388 97.8191C36.5388 98.7474 42.0563 99.5 48.8626 99.5Z" fill="white"/>
<path d="M40.4452 75.9847H57.1947V54.9897H65.1996C66.3392 55.0063 67.463 54.723 68.4584 54.1681C69.4539 53.6132 70.2859 52.8064 70.8711 51.8283C71.4563 50.8504 71.774 49.7358 71.7924 48.5963C71.8108 47.4568 71.5293 46.3325 70.976 45.3362L66.7053 46.8067C67.5448 49.1871 66.0008 50.2178 64.0441 50.2178H48.8205C36.8761 50.2178 30.7151 57.5543 27.7268 69.5339L32.2088 71.3376C35.1962 62.0947 37.483 58.6867 40.4452 57.6137V75.9847Z" stroke="#020064" stroke-linecap="round" stroke-linejoin="round"/>
<path d="M40.4451 73.4079C40.4521 71.1755 40.4451 66.1611 40.4451 59.3167" stroke="#020064" stroke-linecap="round" stroke-linejoin="round"/>
<path d="M48.0614 50.8972L46.2437 66.5818L48.8204 69.5339L51.3971 66.5818L49.1827 50.8972H48.0614Z" fill="white" stroke="#020064" stroke-linecap="round" stroke-linejoin="round"/>
<path d="M50.302 52.73H46.9412V56.0907H50.302V52.73Z" fill="white" stroke="#020064" stroke-linecap="round" stroke-linejoin="round"/>
<path d="M52.7166 54.9896C52.8985 54.9953 53.0797 54.9624 53.2479 54.893C53.4162 54.8236 53.5679 54.7192 53.6929 54.587L56.2022 50.2207H48.8204L48.6191 53.0772C48.6191 53.0772 52.3472 54.9785 52.7166 54.9896Z" fill="white" stroke="#020064" stroke-linecap="round" stroke-linejoin="round"/>
<path d="M26.9707 71.6516C26.7658 72.2133 26.7925 72.8335 27.0449 73.3756C27.2972 73.9177 27.7547 74.3374 28.3164 74.5423C28.8782 74.7471 29.4984 74.7204 30.0405 74.4681C30.5826 74.2158 31.0022 73.7583 31.2071 73.1966L31.9268 71.2228L27.7628 69.5479L26.9707 71.6516Z" fill="white" stroke="#020064" stroke-linecap="round" stroke-linejoin="round"/>
<path d="M37.1879 97.8865C36.967 97.8889 36.7492 97.834 36.5557 97.7275C36.3622 97.6209 36.1995 97.4662 36.0833 97.2784C35.9671 97.0905 35.9013 96.8758 35.8924 96.6551C35.8835 96.4343 35.9317 96.215 36.0324 96.0184C36.3664 95.4134 36.8565 94.909 37.4517 94.5579C38.0469 94.2067 38.7252 94.0214 39.4163 94.0215H40.0605C40.7517 94.0213 41.4304 94.2064 42.0257 94.5576C42.6211 94.9088 43.1114 95.4133 43.4454 96.0184C43.5459 96.2152 43.5938 96.4344 43.5847 96.6552C43.5756 96.8759 43.5097 97.0905 43.3935 97.2783C43.2773 97.4661 43.1145 97.6207 42.921 97.7273C42.7275 97.8338 42.5098 97.8887 42.2889 97.8865H37.1879Z" fill="white" stroke="#020064" stroke-linecap="round" stroke-linejoin="round"/>
<path d="M60.4526 97.8865C60.6736 97.8889 60.8913 97.834 61.0848 97.7275C61.2783 97.6209 61.441 97.4662 61.5573 97.2784C61.6734 97.0905 61.7392 96.8758 61.7481 96.6551C61.757 96.4343 61.7088 96.215 61.6081 96.0184C61.2743 95.4133 60.7842 94.9088 60.189 94.5576C59.5939 94.2064 58.9153 94.0212 58.2242 94.0215H57.58C56.8889 94.0212 56.2104 94.2064 55.6152 94.5576C55.02 94.9088 54.53 95.4133 54.1961 96.0184C54.0954 96.215 54.0472 96.4343 54.0562 96.6551C54.065 96.8758 54.1308 97.0905 54.247 97.2784C54.3632 97.4662 54.5259 97.6209 54.7195 97.7275C54.9129 97.834 55.1307 97.8889 55.3516 97.8865H60.4526Z" fill="white" stroke="#020064" stroke-linecap="round" stroke-linejoin="round"/>
<path d="M57.1945 73.408H40.446V75.9847H57.1945V73.408Z" fill="white" stroke="#020064" stroke-linecap="round" stroke-linejoin="round"/>
<path d="M71.0232 42.842L71.4832 44.8772C71.608 45.4277 71.1037 46.0367 70.2925 46.3145L68.6086 46.8922C67.5819 47.2445 66.5049 46.9315 66.3479 46.235L65.8034 43.8193C65.6454 43.1228 66.4838 42.377 67.5618 42.2532L69.3302 42.0519C70.1828 41.9583 70.8994 42.2904 71.0232 42.842Z" fill="white" stroke="#020064" stroke-linecap="round" stroke-linejoin="round"/>
<path d="M41.1587 51.4557C43.6205 50.5976 46.2136 50.1779 48.8204 50.2157L48.6191 53.0722C47.4245 53.7802 46.1901 54.4187 44.9221 54.9846C44.74 54.9903 44.5588 54.9574 44.3903 54.8879C44.2218 54.8186 44.07 54.7142 43.9448 54.582L41.1587 51.4557Z" fill="white" stroke="#020064" stroke-linecap="round" stroke-linejoin="round"/>
<path d="M51.4121 50.2177L48.6221 53.0742L45.8259 50.3827L45.832 45.3652H51.4182L51.4121 50.2177Z" fill="white" stroke="#020064" stroke-linecap="round" stroke-linejoin="round"/>
<path d="M54.7025 32.3821C53.1856 30.3409 50.5103 29.0405 49.3437 29.9161C48.147 28.4919 46.6362 28.2664 44.7047 28.5332C39.7013 29.7863 37.8704 32.4787 37.0249 36.0036C36.4311 38.4776 37.2262 40.7886 38.8004 41.167C39.4265 41.317 40.6122 41.7297 41.4586 42.0326C42.0918 42.2608 42.7739 42.3188 43.4365 42.2007C46.0202 41.7448 46.7077 41.6411 47.3619 41.5082C48.0161 41.3754 48.6885 41.1982 51.243 40.6024C51.8986 40.4501 52.5027 40.1287 52.9954 39.6703C53.6506 39.0664 54.5827 38.2139 55.1 37.8294C56.3984 36.8611 56.2213 34.4233 54.7025 32.3821Z" fill="white"/>
<path d="M54.7025 32.3821C53.1856 30.3409 50.5103 29.0405 49.3437 29.9161C48.147 28.4919 46.6362 28.2664 44.7047 28.5332C39.7013 29.7863 37.8704 32.4787 37.0249 36.0036C36.4311 38.4776 37.2262 40.7886 38.8004 41.167C39.4265 41.317 40.6122 41.7297 41.4586 42.0326C42.0918 42.2608 42.7739 42.3188 43.4365 42.2007C46.0202 41.7448 46.7077 41.6411 47.3619 41.5082C48.0161 41.3754 48.6885 41.1982 51.243 40.6024C51.8986 40.4501 52.5027 40.1287 52.9954 39.6703C53.6506 39.0664 54.5827 38.2139 55.1 37.8294C56.3984 36.8611 56.2213 34.4233 54.7025 32.3821Z" stroke="#020064" stroke-linecap="round" stroke-linejoin="round"/>
<path d="M39.4496 41.4016L40.1542 41.5888C40.2518 41.6146 40.3541 41.6187 40.4535 41.6005C40.5529 41.5824 40.6472 41.5427 40.7294 41.4841C40.8118 41.4255 40.8802 41.3495 40.9299 41.2615C40.9796 41.1735 41.0092 41.0756 41.0168 40.9748L41.2875 37.4399C41.317 37.022 41.5051 36.6312 41.8133 36.3473C42.1214 36.0635 42.5264 35.9082 42.9453 35.913C44.0244 35.9396 45.1035 35.8573 46.1662 35.6674C47.2169 35.4251 48.2403 35.0771 49.221 34.6287C49.6042 34.459 50.0379 34.4425 50.4331 34.5825C50.8283 34.7225 51.1548 35.0084 51.3457 35.3816L52.9833 38.5259C53.0302 38.6155 53.0962 38.6936 53.1766 38.7548C53.257 38.8161 53.3499 38.8589 53.4486 38.8803C53.5475 38.9018 53.6497 38.9012 53.7483 38.8787C53.8468 38.8563 53.9392 38.8125 54.019 38.7504L54.5958 38.3005C54.9612 38.305 55.3147 38.4317 55.5999 38.6604C55.885 38.8892 56.0853 39.2068 56.169 39.5626C56.2458 39.9519 56.1749 40.3556 55.9702 40.6954C55.7655 41.0352 55.4417 41.2865 55.0618 41.4006C55.0547 43.1766 54.4365 44.8959 53.3109 46.2697C52.1855 47.6435 50.6212 48.5878 48.8813 48.944C47.1415 49.3002 45.3319 49.0465 43.7571 48.2256C42.1822 47.4047 40.9381 46.0666 40.2337 44.4362C39.8398 44.4806 39.4435 44.3765 39.1221 44.1445C38.8007 43.9124 38.5773 43.569 38.4955 43.1811C38.4327 42.8206 38.4926 42.4494 38.6657 42.1268C38.8386 41.8043 39.1146 41.5489 39.4496 41.4016Z" fill="white" stroke="#020064" stroke-linecap="round" stroke-linejoin="round"/>
<path d="M51.6296 42.4452C52.1632 42.4452 52.5958 42.0126 52.5958 41.479C52.5958 40.9454 52.1632 40.5127 51.6296 40.5127C51.096 40.5127 50.6633 40.9453 50.6633 41.479C50.6633 42.0127 51.0959 42.4452 51.6296 42.4452Z" fill="white"/>
<path d="M43.4265 44.1251C43.9601 44.1251 44.3928 43.6925 44.3928 43.1588C44.3928 42.6251 43.9601 42.1926 43.4265 42.1926C42.8928 42.1926 42.4602 42.6252 42.4602 43.1588C42.4602 43.6924 42.8928 44.1251 43.4265 44.1251Z" fill="white"/>
<path d="M43.666 40.8087C43.7452 40.6886 43.8474 40.5853 43.9666 40.5045C44.0859 40.4239 44.2198 40.3675 44.3609 40.3387C44.502 40.3098 44.6473 40.3089 44.7886 40.3363C44.93 40.3635 45.0646 40.4184 45.1848 40.4977" stroke="#020064" stroke-linecap="round" stroke-linejoin="round"/>
<path d="M50.4881 39.4117C50.3679 39.3323 50.2333 39.2775 50.092 39.2501C49.9506 39.2228 49.8052 39.2236 49.6642 39.2525C49.5232 39.2814 49.3891 39.3378 49.27 39.4185C49.1507 39.4991 49.0485 39.6025 48.9692 39.7227" stroke="#020064" stroke-linecap="round" stroke-linejoin="round"/>
<path d="M48.7823 47.3422C49.7915 47.1152 50.3896 45.9525 50.1182 44.7452C49.8466 43.538 48.8083 42.7433 47.7989 42.9704C46.7897 43.1974 46.1916 44.3601 46.4632 45.5673C46.7346 46.7746 47.773 47.5692 48.7823 47.3422Z" fill="white" stroke="#020064" stroke-linecap="round" stroke-linejoin="round"/>
<path d="M34.5992 2.01728C37.3881 2.15138 40.0645 3.15748 42.2511 4.89368C44.4377 6.62988 46.0242 9.00858 46.7869 11.6945C47.5496 14.3804 47.45 17.238 46.5021 19.8642C45.5544 22.4905 43.8061 24.753 41.5039 26.3328C41.9432 28.2816 42.9539 30.0548 44.4067 31.4258C44.4731 31.4892 44.5183 31.5715 44.5362 31.6615C44.5542 31.7514 44.5439 31.8448 44.507 31.9288C44.4701 32.0128 44.4082 32.0834 44.3297 32.131C44.2513 32.1785 44.1601 32.2008 44.0686 32.1948C39.6781 31.9361 37.0974 30.4837 35.3672 28.6035C34.8991 28.6534 34.4288 28.6789 33.958 28.68C32.1801 28.6788 30.4203 28.3222 28.7821 27.6311C27.144 26.9401 25.6606 25.9284 24.419 24.6558C23.1775 23.383 22.2029 21.8749 21.5526 20.2202C20.9023 18.5655 20.5894 16.7973 20.6323 15.0199C20.6752 13.2425 21.073 11.4916 21.8023 9.87008C22.5316 8.24858 23.5778 6.78928 24.8792 5.57788C26.1807 4.36658 27.7112 3.42768 29.3808 2.81638C31.0503 2.20508 32.8253 1.93368 34.6012 2.01828L34.5992 2.01728Z" fill="white"/>
<path d="M34.5992 2.01728C37.3881 2.15138 40.0645 3.15748 42.2511 4.89368C44.4377 6.62988 46.0242 9.00858 46.7869 11.6945C47.5496 14.3804 47.45 17.238 46.5021 19.8642C45.5544 22.4905 43.8061 24.753 41.5039 26.3328C41.9432 28.2816 42.9539 30.0548 44.4067 31.4258C44.4731 31.4892 44.5183 31.5715 44.5362 31.6615C44.5542 31.7514 44.5439 31.8448 44.507 31.9288C44.4701 32.0128 44.4082 32.0834 44.3297 32.131C44.2513 32.1785 44.1601 32.2008 44.0686 32.1948C39.6781 31.9361 37.0974 30.4837 35.3672 28.6035C34.8991 28.6534 34.4288 28.6789 33.958 28.68C32.1801 28.6788 30.4203 28.3222 28.7821 27.6311C27.144 26.9401 25.6606 25.9284 24.419 24.6558C23.1775 23.383 22.2029 21.8749 21.5526 20.2202C20.9023 18.5655 20.5894 16.7973 20.6323 15.0199C20.6752 13.2425 21.073 11.4916 21.8023 9.87008C22.5316 8.24858 23.5778 6.78928 24.8792 5.57788C26.1807 4.36658 27.7112 3.42768 29.3808 2.81638C31.0503 2.20508 32.8253 1.93368 34.6012 2.01828L34.5992 2.01728Z" stroke="#020064" stroke-linecap="round" stroke-linejoin="round"/>
<path d="M33.9551 25.4804C33.534 25.4799 33.1304 25.3123 32.8326 25.0146C32.5348 24.7168 32.3674 24.3131 32.3668 23.8921V23.5298C31.3777 23.2015 30.5167 22.5711 29.905 21.7275C29.2934 20.8838 28.9621 19.8693 28.9578 18.8273C28.9681 18.4128 29.1401 18.0188 29.437 17.7294C29.7338 17.44 30.132 17.2779 30.5466 17.2779C30.9611 17.2779 31.3593 17.44 31.6561 17.7294C31.953 18.0189 32.1249 18.4128 32.1354 18.8273C32.1401 19.3055 32.3344 19.7622 32.6756 20.0974C33.0168 20.4325 33.4769 20.6186 33.9551 20.6149H34.2048C34.6172 20.6186 35.0143 20.4586 35.3088 20.1699C35.6034 19.8811 35.7714 19.4874 35.7759 19.0749C35.7755 18.7875 35.6943 18.506 35.5416 18.2625C35.3889 18.019 35.1708 17.8235 34.9123 17.698L31.5908 16.0533C30.8001 15.6673 30.1341 15.0666 29.6686 14.32C29.2031 13.5733 28.9572 12.7107 28.9588 11.8309C28.9668 10.811 29.3026 9.82086 29.9165 9.00636C30.5303 8.19186 31.3897 7.59636 32.3679 7.30756V7.01366C32.3782 6.59926 32.5502 6.20526 32.8471 5.91586C33.1439 5.62636 33.5421 5.46436 33.9567 5.46436C34.3712 5.46436 34.7694 5.62636 35.0662 5.91586C35.3631 6.20526 35.535 6.59926 35.5455 7.01366V7.37606C36.5345 7.70366 37.3955 8.33366 38.0072 9.17706C38.6189 10.0205 38.9502 11.0347 38.9545 12.0765C38.9441 12.4909 38.7722 12.885 38.4753 13.1744C38.1785 13.4638 37.7803 13.6258 37.3657 13.6258C36.9512 13.6258 36.553 13.4638 36.2562 13.1744C35.9593 12.885 35.7873 12.4909 35.7769 12.0765C35.7721 11.5979 35.5776 11.1409 35.2359 10.8057C34.8943 10.4705 34.4336 10.2847 33.9551 10.2889H33.7075C33.2948 10.2852 32.8975 10.4453 32.6027 10.7343C32.308 11.0231 32.1399 11.4172 32.1353 11.83C32.1354 12.1172 32.2163 12.3987 32.3687 12.6424C32.5209 12.886 32.7387 13.082 32.9969 13.2079L36.3184 14.8515C37.1093 15.2384 37.7753 15.84 38.2403 16.5877C38.7054 17.3352 38.9508 18.1985 38.9485 19.0789C38.94 20.0986 38.6042 21.0887 37.9904 21.9031C37.3766 22.7175 36.5173 23.3132 35.5394 23.6022V23.8961C35.5378 24.3157 35.3704 24.7178 35.0736 25.0146C34.7769 25.3114 34.3747 25.4788 33.9551 25.4804Z" fill="white" stroke="#020064" stroke-linecap="round" stroke-linejoin="round"/>
<path d="M61.5126 9.34478C59.359 9.44818 57.2923 10.2248 55.6037 11.5652C53.9151 12.9057 52.6897 14.7424 52.1005 16.8164C51.5113 18.8902 51.5878 21.0968 52.3193 23.1248C53.0509 25.153 54.4006 26.9003 56.178 28.1205C55.8386 29.6249 55.0582 30.9937 53.9365 32.052C53.8853 32.101 53.8504 32.1646 53.8367 32.2341C53.8229 32.3036 53.8307 32.3757 53.8593 32.4406C53.8879 32.5054 53.9358 32.5599 53.9964 32.5966C54.057 32.6333 54.1274 32.6506 54.1982 32.6458C57.5882 32.4445 59.5811 31.3253 60.9167 29.8729C61.2789 29.9111 61.6427 29.9306 62.0068 29.9312C63.3785 29.9285 64.7358 29.6518 65.9991 29.1175C67.2624 28.583 68.4063 27.8016 69.3635 26.8192C70.3206 25.8366 71.0717 24.6728 71.573 23.396C72.0743 22.1192 72.3155 20.7551 72.2824 19.3839C72.2493 18.0126 71.9425 16.6618 71.3801 15.4107C70.8179 14.1594 70.0113 13.0334 69.0078 12.0982C68.0043 11.163 66.8241 10.4378 65.5365 9.96498C64.2489 9.49218 62.8798 9.28128 61.5096 9.34478H61.5126Z" fill="white"/>
<path d="M61.5126 9.34478C59.359 9.44818 57.2923 10.2248 55.6037 11.5652C53.9151 12.9057 52.6897 14.7424 52.1005 16.8164C51.5113 18.8902 51.5878 21.0968 52.3193 23.1248C53.0509 25.153 54.4006 26.9003 56.178 28.1205C55.8386 29.6249 55.0582 30.9937 53.9365 32.052C53.8853 32.101 53.8504 32.1646 53.8367 32.2341C53.8229 32.3036 53.8307 32.3757 53.8593 32.4406C53.8879 32.5054 53.9358 32.5599 53.9964 32.5966C54.057 32.6333 54.1274 32.6506 54.1982 32.6458C57.5882 32.4445 59.5811 31.3253 60.9167 29.8729C61.2789 29.9111 61.6427 29.9306 62.0068 29.9312C63.3785 29.9285 64.7358 29.6518 65.9991 29.1175C67.2624 28.583 68.4063 27.8016 69.3635 26.8192C70.3206 25.8366 71.0717 24.6728 71.573 23.396C72.0743 22.1192 72.3155 20.7551 72.2824 19.3839C72.2493 18.0126 71.9425 16.6618 71.3801 15.4107C70.8179 14.1594 70.0113 13.0334 69.0078 12.0982C68.0043 11.163 66.8241 10.4378 65.5365 9.96498C64.2489 9.49218 62.8798 9.28128 61.5096 9.34478H61.5126Z" stroke="#020064" stroke-linecap="round" stroke-linejoin="round"/>
<path d="M56.1113 17.5072L56.0992 18.713C56.0959 19.0404 56.3587 19.3085 56.6861 19.3117L67.4583 19.4198C67.7857 19.4231 68.0538 19.1604 68.0571 18.833L68.0692 17.6272C68.0725 17.2999 67.8097 17.0317 67.4824 17.0285L56.7101 16.9204C56.3827 16.9171 56.1146 17.1798 56.1113 17.5072Z" fill="white"/>
<path d="M56.8896 19.3145L67.2568 19.4152L67.1994 25.1997C67.1976 25.3569 67.1335 25.507 67.0213 25.6172C66.9091 25.7273 66.7579 25.7885 66.6006 25.7875L57.4221 25.6949C57.3439 25.694 57.2666 25.6776 57.1947 25.6467C57.1228 25.6158 57.0577 25.571 57.0032 25.5149C56.9486 25.4588 56.9058 25.3924 56.877 25.3196C56.8481 25.2469 56.834 25.1692 56.8353 25.091L56.8896 19.3145Z" fill="white"/>
<path d="M60.8755 19.3535L60.8103 25.7315L63.2017 25.7559L63.2669 19.3779L60.8755 19.3535Z" fill="white"/>
<path d="M60.8352 13.067C61.6404 13.8178 62.0954 16.9723 62.0954 16.9723C62.0954 16.9723 58.9178 16.7297 58.1136 15.9778C57.753 15.6114 57.5479 15.1201 57.5412 14.6061C57.5343 14.0922 57.7264 13.5955 58.0771 13.2197C58.4279 12.844 58.9102 12.6183 59.4235 12.59C59.9367 12.5615 60.441 12.7324 60.8312 13.067H60.8352Z" stroke="#020064" stroke-linecap="round" stroke-linejoin="round"/>
<path d="M63.4331 13.0922C62.6148 13.828 62.0955 16.9724 62.0955 16.9724C62.0955 16.9724 65.2771 16.7942 66.0964 16.0584C66.2911 15.8835 66.4496 15.672 66.5626 15.4359C66.6756 15.1999 66.7411 14.9438 66.7551 14.6824C66.7691 14.421 66.7316 14.1594 66.6445 13.9126C66.5576 13.6657 66.4227 13.4385 66.2479 13.2437C66.073 13.049 65.8615 12.8905 65.6254 12.7775C65.3893 12.6645 65.1332 12.599 64.8719 12.5849C64.6105 12.571 64.349 12.6085 64.1021 12.6955C63.8552 12.7825 63.6279 12.9173 63.4331 13.0922Z" stroke="#020064" stroke-linecap="round" stroke-linejoin="round"/>
<path d="M56.8896 19.3145L67.2568 19.4152L67.1994 25.1997C67.1976 25.3569 67.1335 25.507 67.0213 25.6172C66.9091 25.7273 66.7579 25.7885 66.6006 25.7875L57.4221 25.6949C57.3439 25.694 57.2666 25.6776 57.1947 25.6467C57.1228 25.6158 57.0577 25.571 57.0032 25.5149C56.9486 25.4588 56.9058 25.3924 56.877 25.3196C56.8481 25.2469 56.834 25.1692 56.8353 25.091L56.8896 19.3145Z" stroke="#020064" stroke-linecap="round" stroke-linejoin="round"/>
<path d="M60.8755 19.3535L60.8103 25.7315L63.2017 25.7559L63.2669 19.3779L60.8755 19.3535Z" stroke="#020064" stroke-linecap="round" stroke-linejoin="round"/>
<path d="M56.1113 17.5072L56.0992 18.713C56.0959 19.0404 56.3587 19.3085 56.6861 19.3117L67.4583 19.4198C67.7857 19.4231 68.0538 19.1604 68.0571 18.833L68.0692 17.6272C68.0725 17.2999 67.8097 17.0317 67.4824 17.0285L56.7101 16.9204C56.3827 16.9171 56.1146 17.1798 56.1113 17.5072Z" stroke="#020064" stroke-linecap="round" stroke-linejoin="round"/>
<path d="M60.8995 16.9631L60.8757 19.3545L63.2671 19.3784L63.2909 16.987L60.8995 16.9631Z" fill="white"/>
<path d="M60.8995 16.9631L60.8757 19.3545L63.2671 19.3784L63.2909 16.987L60.8995 16.9631Z" stroke="#020064" stroke-linecap="round" stroke-linejoin="round"/>
<path d="M16.2585 30.5573C18.1465 29.632 20.2774 29.3229 22.3505 29.6735C24.4237 30.024 26.3344 31.0166 27.8133 32.5111C29.2922 34.0056 30.2646 35.9268 30.5932 38.0035C30.9219 40.0802 30.5903 42.2078 29.6452 44.0859C30.6425 45.2117 31.9534 46.014 33.4096 46.3899C33.476 46.408 33.5354 46.446 33.5796 46.499C33.6238 46.5518 33.6507 46.6169 33.6567 46.6856C33.6627 46.7542 33.6475 46.8231 33.6133 46.8829C33.579 46.9427 33.5273 46.9905 33.465 47.02C30.4756 48.4442 28.2461 48.4291 26.4193 47.8121C26.1273 48.0152 25.825 48.203 25.5134 48.3747C24.3404 49.0208 23.0502 49.4259 21.7183 49.5659C20.3865 49.7059 19.0402 49.5781 17.7585 49.19C16.4768 48.802 15.2857 48.1616 14.2551 47.3063C13.2246 46.4511 12.3756 45.3984 11.758 44.2102C11.1404 43.022 10.7667 41.7222 10.6589 40.3874C10.551 39.0526 10.7112 37.7097 11.1301 36.4378C11.549 35.1659 12.2181 33.9904 13.0979 32.9809C13.9778 31.9714 15.0506 31.148 16.2534 30.5593L16.2585 30.5573Z" fill="white"/>
<path d="M20.4697 44.1161C23.0518 44.1161 25.1449 42.0229 25.1449 39.4409C25.1449 36.8587 23.0518 34.7656 20.4697 34.7656C17.8876 34.7656 15.7944 36.8587 15.7944 39.4409C15.7944 42.0229 17.8876 44.1161 20.4697 44.1161Z" fill="white" stroke="#020064" stroke-linecap="round" stroke-linejoin="round"/>
<path d="M20.0781 36.8733L20.4697 39.441L22.0096 39.2064" stroke="#020064" stroke-linecap="round" stroke-linejoin="round"/>
<path d="M16.2585 30.5573C18.1465 29.632 20.2774 29.3229 22.3505 29.6735C24.4237 30.024 26.3344 31.0166 27.8133 32.5111C29.2922 34.0056 30.2646 35.9268 30.5932 38.0035C30.9219 40.0802 30.5903 42.2078 29.6452 44.0859C30.6425 45.2117 31.9534 46.014 33.4096 46.3899C33.476 46.408 33.5354 46.446 33.5796 46.499C33.6238 46.5518 33.6507 46.6169 33.6567 46.6856C33.6627 46.7542 33.6475 46.8231 33.6133 46.8829C33.579 46.9427 33.5273 46.9905 33.465 47.02C30.4756 48.4442 28.2461 48.4291 26.4193 47.8121C26.1273 48.0152 25.825 48.203 25.5134 48.3747C24.3404 49.0208 23.0502 49.4259 21.7183 49.5659C20.3865 49.7059 19.0402 49.5781 17.7585 49.19C16.4768 48.802 15.2857 48.1616 14.2551 47.3063C13.2246 46.4511 12.3756 45.3984 11.758 44.2102C11.1404 43.022 10.7667 41.7222 10.6589 40.3874C10.551 39.0526 10.7112 37.7097 11.1301 36.4378C11.549 35.1659 12.2181 33.9904 13.0979 32.9809C13.9778 31.9714 15.0506 31.148 16.2534 30.5593L16.2585 30.5573Z" stroke="#020064" stroke-linecap="round" stroke-linejoin="round"/>
</svg>
