<svg width="219.537109" height="56.000000" viewBox="0 0 219.537 56" fill="none" xmlns="http://www.w3.org/2000/svg" xmlns:xlink="http://www.w3.org/1999/xlink">
	<desc>
			Created with Pixso.
	</desc>
	<defs>
		<clipPath id="clip2_2">
			<rect id="Icon" width="36.000000" height="36.000000" transform="translate(0.000000 10.000000)" fill="white" fill-opacity="0"/>
		</clipPath>
		<clipPath id="clip330_1193">
			<rect id="Frame 9" width="219.536804" height="56.000000" fill="white" fill-opacity="0"/>
		</clipPath>
	</defs>
	<g clip-path="url(#clip330_1193)">
		<g clip-path="url(#clip2_2)">
			<path id="Vector" d="M17.998 15.5347L35.5996 10.3491L30.4648 28L35.5996 45.6011L17.998 40.4653L0.347656 45.6011L5.5332 28L0.347656 10.3491L17.998 15.5347Z" fill="#000000" fill-opacity="1.000000" fill-rule="nonzero"/>
		</g>
		<path id="Positivus" d="M48.9199 41L48.9199 13L60.0391 13Q62.5996 13 64.5996 14.04Q65.8555 14.6548 66.7617 15.603Q67.3281 16.1963 67.7598 16.9199Q68.9199 18.7598 68.9199 21.3599L68.9199 21.8799Q68.9199 24.3652 67.8242 26.1929Q67.7734 26.2769 67.7207 26.3599Q67.1875 27.2236 66.4766 27.9019Q65.6406 28.6992 64.5605 29.2402Q62.5605 30.2402 60.0391 30.2402L53.2402 30.2402L53.2402 41L48.9199 41ZM120.299 18.6001Q119.566 18.6001 118.969 18.3164L118.967 18.3164Q118.586 18.1357 118.26 17.8398C117.727 17.3066 117.459 16.6265 117.459 15.7998C117.459 14.9731 117.727 14.3066 118.26 13.7998Q118.629 13.4492 119.066 13.252L119.066 13.252Q119.627 13 120.299 13Q121.111 13 121.734 13.3428Q122.062 13.5234 122.34 13.7998C122.873 14.3066 123.139 14.9731 123.139 15.7998C123.139 16.6265 122.873 17.3066 122.34 17.8398Q122.105 18.0625 121.834 18.2197L121.834 18.2197Q121.178 18.6001 120.299 18.6001ZM148.854 18.6001Q148.121 18.6001 147.523 18.3164L147.521 18.3164Q147.141 18.1357 146.814 17.8398C146.281 17.3066 146.014 16.6265 146.014 15.7998C146.014 14.9731 146.281 14.3066 146.814 13.7998Q147.184 13.4492 147.621 13.252L147.621 13.252Q148.182 13 148.854 13C149.682 13 150.361 13.2666 150.895 13.7998C151.428 14.3066 151.693 14.9731 151.693 15.7998C151.693 16.6265 151.428 17.3066 150.895 17.8398C150.361 18.3467 149.682 18.6001 148.854 18.6001ZM135.854 41C134.654 41 133.693 40.6401 132.975 39.9199C132.281 39.2002 131.934 38.2402 131.934 37.04L131.934 24.7598L126.494 24.7598L126.494 21.2798L131.934 21.2798L131.934 14.7598L136.055 14.7598L136.055 21.2798L141.934 21.2798L141.934 24.7598L136.055 24.7598L136.055 36.3198C136.055 37.1201 136.428 37.52 137.174 37.52L141.295 37.52L141.295 41L135.854 41ZM53.2402 26.3198L59.5996 26.3198Q61.6914 26.3198 63.0098 25.3101L63.0098 25.3101Q63.127 25.2192 63.2402 25.1201Q63.6504 24.7568 63.9375 24.3135Q64.5996 23.291 64.5996 21.8398L64.5996 21.4399Q64.5996 19.9062 63.8887 18.854L63.8887 18.854Q63.6152 18.4517 63.2402 18.1201Q63.127 18.021 63.0098 17.9302L63.0098 17.9302Q61.6914 16.9199 59.5996 16.9199L53.2402 16.9199L53.2402 26.3198ZM81.834 41.5601C79.8613 41.5601 78.1016 41.1602 76.5547 40.3599C75.0352 39.5332 73.834 38.3599 72.9551 36.8398C72.0742 35.3198 71.6348 33.52 71.6348 31.4399L71.6348 30.8398C71.6348 28.7598 72.0742 26.9731 72.9551 25.48Q73.6816 24.2236 74.7012 23.2827L74.7012 23.2827Q75.5312 22.5166 76.5547 21.96C78.1016 21.1333 79.8613 20.7202 81.834 20.7202C83.8086 20.7202 85.5684 21.1333 87.1152 21.96Q88.2637 22.5737 89.166 23.4424Q90.0879 24.3286 90.7539 25.48C91.6348 26.9731 92.0742 28.7598 92.0742 30.8398L92.0742 31.4399C92.0742 33.52 91.6348 35.3198 90.7539 36.8398Q90.0879 37.9912 89.166 38.8774Q88.2637 39.7461 87.1152 40.3599C85.5684 41.1602 83.8086 41.5601 81.834 41.5601ZM105.283 41.5601C102.777 41.5601 100.697 41 99.0449 39.8799C97.3906 38.7598 96.377 37.0669 96.0039 34.7998L99.8438 33.8799C100.057 34.9731 100.418 35.8398 100.924 36.48C101.43 37.1201 102.057 37.5732 102.805 37.8398C103.578 38.1064 104.404 38.2402 105.283 38.2402C106.59 38.2402 107.59 37.9868 108.283 37.48C109.004 36.9731 109.363 36.3198 109.363 35.52C109.363 34.7202 109.031 34.1333 108.363 33.7598C107.697 33.3867 106.711 33.0801 105.404 32.8398L104.045 32.6001C102.711 32.3599 101.498 32.0132 100.404 31.5601C99.3105 31.1064 98.4434 30.48 97.8047 29.6802Q97.7305 29.5884 97.6621 29.4932Q96.8438 28.3364 96.8438 26.6001C96.8438 24.7334 97.5371 23.2935 98.9238 22.2798Q101.004 20.7202 104.443 20.7202Q107.764 20.7202 109.885 22.2402Q110.932 22.957 111.621 23.9282Q112.354 24.9604 112.684 26.2798L108.844 27.3599C108.604 26.1602 108.098 25.3198 107.324 24.8398Q106.164 24.0801 104.443 24.0801C103.324 24.0801 102.443 24.2935 101.805 24.7202C101.164 25.1201 100.844 25.6934 100.844 26.4399C100.844 27.2402 101.15 27.8267 101.764 28.2002C102.404 28.5732 103.258 28.8535 104.324 29.04L105.725 29.2798C107.137 29.52 108.43 29.8535 109.604 30.2798C110.777 30.7065 111.697 31.3198 112.363 32.1201C113.057 32.9199 113.404 33.9868 113.404 35.3198C113.404 37.2935 112.67 38.8267 111.203 39.9199C109.738 41.0132 107.764 41.5601 105.283 41.5601ZM211.416 41.5601C208.91 41.5601 206.83 41 205.178 39.8799Q204.479 39.4067 203.932 38.7969Q202.539 37.2422 202.137 34.7998L205.977 33.8799C206.189 34.9731 206.551 35.8398 207.057 36.48C207.562 37.1201 208.189 37.5732 208.938 37.8398C209.711 38.1064 210.537 38.2402 211.416 38.2402C212.723 38.2402 213.723 37.9868 214.416 37.48Q215.078 37.0151 215.334 36.3853Q215.496 35.9858 215.496 35.52C215.496 34.7202 215.164 34.1333 214.496 33.7598C213.83 33.3867 212.844 33.0801 211.537 32.8398L210.178 32.6001C208.844 32.3599 207.631 32.0132 206.537 31.5601C205.443 31.1064 204.576 30.48 203.938 29.6802C203.297 28.8799 202.977 27.8535 202.977 26.6001C202.977 24.7334 203.67 23.2935 205.057 22.2798C206.443 21.2402 208.283 20.7202 210.576 20.7202C212.791 20.7202 214.604 21.2266 216.018 22.2402Q217.064 22.957 217.754 23.9282Q218.486 24.9604 218.816 26.2798L214.977 27.3599C214.736 26.1602 214.23 25.3198 213.457 24.8398C212.684 24.3335 211.723 24.0801 210.576 24.0801C209.457 24.0801 208.576 24.2935 207.938 24.7202C207.297 25.1201 206.977 25.6934 206.977 26.4399C206.977 27.2402 207.283 27.8267 207.896 28.2002C208.537 28.5732 209.391 28.8535 210.457 29.04L211.857 29.2798C213.27 29.52 214.562 29.8535 215.736 30.2798C216.91 30.7065 217.83 31.3198 218.496 32.1201C219.189 32.9199 219.537 33.9868 219.537 35.3198C219.537 37.2935 218.803 38.8267 217.336 39.9199C215.871 41.0132 213.896 41.5601 211.416 41.5601ZM118.219 41L118.219 21.2798L122.34 21.2798L122.34 41L118.219 41ZM146.773 41L146.773 21.2798L150.895 21.2798L150.895 41L146.773 41ZM161.568 41L154.928 21.2798L159.289 21.2798L164.529 37.96L165.168 37.96L170.408 21.2798L174.77 21.2798L168.129 41L161.568 41ZM186.326 41.3599C184.834 41.3599 183.5 41.0269 182.326 40.3599C181.152 39.6934 180.232 38.7466 179.566 37.52C178.9 36.2935 178.566 34.8267 178.566 33.1201L178.566 21.2798L182.686 21.2798L182.686 32.8398Q182.686 35.3989 183.965 36.6387L183.967 36.6401C184.82 37.4399 186.006 37.8398 187.527 37.8398Q189.188 37.8398 190.414 37.1099L190.414 37.1099Q191.049 36.7324 191.566 36.1602C192.607 35.0132 193.127 33.3735 193.127 31.2402L193.127 21.2798L197.246 21.2798L197.246 41L193.207 41L193.207 38.04L192.566 38.04C192.193 38.8398 191.527 39.6001 190.566 40.3198C189.607 41.0132 188.193 41.3599 186.326 41.3599ZM81.834 37.8799Q83.7383 37.8799 85.1348 37.0366Q85.7305 36.6758 86.2344 36.1602Q86.4668 35.9224 86.668 35.6602Q87.9551 33.9839 87.9551 31.3198L87.9551 30.96C87.9551 28.9067 87.3945 27.3066 86.2754 26.1602C85.1543 24.9868 83.6738 24.3999 81.834 24.3999C80.0488 24.3999 78.582 24.9868 77.4355 26.1602Q77.2617 26.3379 77.1055 26.5303Q75.7539 28.1987 75.7539 30.96L75.7539 31.3198Q75.7539 34.063 77.0879 35.7593L77.0879 35.7598Q77.252 35.9678 77.4355 36.1602C78.582 37.3066 80.0488 37.8799 81.834 37.8799Z" fill="#000000" fill-opacity="1.000000" fill-rule="evenodd"/>
	</g>
</svg>
