<svg width="220" height="36" viewBox="0 0 220 36" fill="none" xmlns="http://www.w3.org/2000/svg">
<g clip-path="url(#clip0_2030_521)">
<mask id="mask0_2030_521" style="mask-type:luminance" maskUnits="userSpaceOnUse" x="0" y="0" width="36" height="36">
<path d="M36 0H0V36H36V0Z" fill="white"/>
</mask>
<g mask="url(#mask0_2030_521)">
<path d="M17.9986 5.53472L35.5997 0.349121L30.464 18.0001L35.5997 35.6012L17.9986 30.4655L0.347656 35.6012L5.53325 18.0001L0.347656 0.349121L17.9986 5.53472Z" fill="white"/>
</g>
<path d="M53.29 29V13.67H57.25V29H53.29ZM53.29 8H57.25V12.05H53.29V8ZM60.7232 22.31V16.82H58.6532V13.67H60.7232V9.5H64.7132V13.67H67.1732V16.82H64.7132V23.27C64.7132 24.49 64.9232 25.35 65.3432 25.85H67.1732V29H62.9132C61.8532 28.02 61.2132 26.96 60.9932 25.82C60.8132 24.86 60.7232 23.69 60.7232 22.31ZM68.3359 22.07V18.65H74.5159V22.07H68.3359ZM77.7588 13.67H84.3888V16.82H79.7088L82.5588 21.05C83.8388 22.87 84.5488 24.12 84.6888 24.8C84.7688 25.12 84.8088 25.45 84.8088 25.79C84.8088 27.21 84.2788 28.28 83.2188 29H75.5688V25.85H81.0588L77.8488 21.14C77.7088 20.92 77.4888 20.61 77.1888 20.21C76.9088 19.81 76.6888 19.49 76.5288 19.25C76.3688 18.99 76.2588 18.8 76.1988 18.68C76.1388 18.56 76.0588 18.41 75.9587 18.23C75.8588 18.03 75.7888 17.86 75.7488 17.72C75.6688 17.34 75.6288 17.03 75.6288 16.79C75.6288 15.33 76.3388 14.29 77.7588 13.67ZM86.3641 20.57V13.67H90.3541V20.6C90.3541 22.34 90.7041 23.79 91.4041 24.95H93.1741C93.8341 23.81 94.1641 22.36 94.1641 20.6V13.67H98.1541V20.36C98.1541 21.86 97.9541 23.18 97.5541 24.32C97.1741 25.46 96.5441 26.75 95.6641 28.19L93.6541 31.46C93.2941 32.08 92.9141 32.54 92.5141 32.84C92.1141 33.14 91.5941 33.36 90.9541 33.5H86.2141V30.35H89.4541C89.8741 30.23 90.2241 30.02 90.5041 29.72C90.7841 29.42 91.0741 28.99 91.3741 28.43L91.5541 28.1H89.4841C88.5241 27.32 87.7641 26.27 87.2041 24.95C86.6441 23.61 86.3641 22.15 86.3641 20.57ZM101.694 13.67H108.324V16.82H103.644L106.494 21.05C107.774 22.87 108.484 24.12 108.624 24.8C108.704 25.12 108.744 25.45 108.744 25.79C108.744 27.21 108.214 28.28 107.154 29H99.5043V25.85H104.994L101.784 21.14C101.644 20.92 101.424 20.61 101.124 20.21C100.844 19.81 100.624 19.49 100.464 19.25C100.304 18.99 100.194 18.8 100.134 18.68C100.074 18.56 99.9943 18.41 99.8943 18.23C99.7943 18.03 99.7243 17.86 99.6843 17.72C99.6043 17.34 99.5643 17.03 99.5643 16.79C99.5643 15.33 100.274 14.29 101.694 13.67ZM117.343 13.67H119.473L120.223 14.72C120.643 14.34 121.043 14.07 121.423 13.91C121.823 13.75 122.413 13.67 123.193 13.67H126.523C127.403 14.79 128.003 15.91 128.323 17.03C128.643 18.15 128.803 19.55 128.803 21.23V29H124.813V20.93C124.813 19.09 124.533 17.72 123.973 16.82H121.093C121.533 17.68 121.753 18.85 121.753 20.33V29H117.763V20.93C117.763 19.03 117.503 17.66 116.983 16.82H114.673V29H110.683V13.67H113.803L114.343 14.75C114.783 14.35 115.193 14.07 115.573 13.91C115.973 13.75 116.563 13.67 117.343 13.67ZM138.179 16.82H135.929C135.629 17.18 135.379 17.68 135.179 18.32C134.999 18.96 134.909 19.58 134.909 20.18H139.199C139.239 19.58 139.159 18.96 138.959 18.32C138.759 17.66 138.499 17.16 138.179 16.82ZM142.259 25.85V29H134.639C133.239 28.06 132.249 26.9 131.669 25.52C131.109 24.12 130.829 22.71 130.829 21.29C130.829 18.01 132.069 15.47 134.549 13.67H139.409C140.749 14.65 141.659 15.69 142.139 16.79C142.619 17.89 142.859 19 142.859 20.12C142.859 21.24 142.769 22.2 142.589 23H135.119C135.179 23.46 135.349 23.99 135.629 24.59C135.929 25.17 136.249 25.59 136.589 25.85H142.259ZM151.532 13.67H153.662L154.412 14.72C154.832 14.34 155.232 14.07 155.612 13.91C156.012 13.75 156.602 13.67 157.382 13.67H160.712C161.592 14.79 162.192 15.91 162.512 17.03C162.832 18.15 162.992 19.55 162.992 21.23V29H159.002V20.93C159.002 19.09 158.722 17.72 158.162 16.82H155.282C155.722 17.68 155.942 18.85 155.942 20.33V29H151.952V20.93C151.952 19.03 151.692 17.66 151.172 16.82H148.862V29H144.872V13.67H147.992L148.532 14.75C148.972 14.35 149.382 14.07 149.762 13.91C150.162 13.75 150.752 13.67 151.532 13.67ZM166.938 13.67H173.568V16.82H168.888L171.738 21.05C173.018 22.87 173.728 24.12 173.868 24.8C173.948 25.12 173.988 25.45 173.988 25.79C173.988 27.21 173.458 28.28 172.398 29H164.748V25.85H170.238L167.028 21.14C166.888 20.92 166.668 20.61 166.368 20.21C166.088 19.81 165.868 19.49 165.708 19.25C165.548 18.99 165.438 18.8 165.378 18.68C165.318 18.56 165.238 18.41 165.138 18.23C165.038 18.03 164.968 17.86 164.928 17.72C164.848 17.34 164.808 17.03 164.808 16.79C164.808 15.33 165.518 14.29 166.938 13.67Z" fill="white"/>
</g>
<defs>
<clipPath id="clip0_2030_521">
<rect width="220" height="36" fill="white"/>
</clipPath>
</defs>
</svg>
